<svg width="200" height="200" viewBox="0 0 200 200" fill="none" xmlns="http://www.w3.org/2000/svg">
<path d="M63.9 93.069C72.9136 93.069 81.558 89.9046 87.9315 84.2721C94.3051 78.6395 97.8857 71.0001 97.8857 63.0345C97.8857 55.0688 94.3051 47.4295 87.9315 41.7969C81.558 36.1643 72.9136 33 63.9 33C54.8864 33 46.242 36.1643 39.8685 41.7969C33.4949 47.4295 29.9143 55.0688 29.9143 63.0345C29.9143 71.0001 33.4949 78.6395 39.8685 84.2721C46.242 89.9046 54.8864 93.069 63.9 93.069ZM87.4286 125.414C87.4283 120.569 89.1518 115.846 92.3551 111.914C95.5584 107.982 100.08 105.039 105.279 103.502C102.917 102.713 100.411 102.309 97.8857 102.31H29.9143C24.3675 102.31 19.0478 104.258 15.1257 107.724C11.2035 111.19 9 115.891 9 120.793C9 120.793 9 157.759 63.9 157.759C73.2801 157.759 81.0497 156.677 87.5018 154.894C87.4525 154.31 87.4281 153.724 87.4286 153.138V125.414ZM171.086 69.9655C171.086 76.0929 168.331 81.9694 163.429 86.3021C158.526 90.6349 151.876 93.069 144.943 93.069C138.009 93.069 131.36 90.6349 126.457 86.3021C121.554 81.9694 118.8 76.0929 118.8 69.9655C118.8 63.8381 121.554 57.9617 126.457 53.6289C131.36 49.2962 138.009 46.8621 144.943 46.8621C151.876 46.8621 158.526 49.2962 163.429 53.6289C168.331 57.9617 171.086 63.8381 171.086 69.9655ZM97.8857 125.414C97.8857 121.737 99.5383 118.211 102.48 115.612C105.422 113.012 109.411 111.552 113.571 111.552H176.314C180.474 111.552 184.464 113.012 187.406 115.612C190.347 118.211 192 121.737 192 125.414V153.138C192 156.814 190.347 160.34 187.406 162.94C184.464 165.54 180.474 167 176.314 167H113.571C109.411 167 105.422 165.54 102.48 162.94C99.5383 160.34 97.8857 156.814 97.8857 153.138V125.414ZM108.343 125.414V134.655C112.503 134.655 116.493 133.195 119.434 130.595C122.376 127.995 124.029 124.47 124.029 120.793H113.571C113.571 122.019 113.021 123.194 112.04 124.06C111.059 124.927 109.73 125.414 108.343 125.414ZM181.543 134.655V125.414C180.156 125.414 178.826 124.927 177.846 124.06C176.865 123.194 176.314 122.019 176.314 120.793H165.857C165.857 124.47 167.51 127.995 170.451 130.595C173.393 133.195 177.383 134.655 181.543 134.655ZM165.857 157.759H176.314C176.314 156.533 176.865 155.358 177.846 154.491C178.826 153.625 180.156 153.138 181.543 153.138V143.897C177.383 143.897 173.393 145.357 170.451 147.957C167.51 150.556 165.857 154.082 165.857 157.759ZM108.343 143.897V153.138C109.73 153.138 111.059 153.625 112.04 154.491C113.021 155.358 113.571 156.533 113.571 157.759H124.029C124.029 154.082 122.376 150.556 119.434 147.957C116.493 145.357 112.503 143.897 108.343 143.897ZM144.943 153.138C149.103 153.138 153.093 151.677 156.034 149.078C158.976 146.478 160.629 142.952 160.629 139.276C160.629 135.599 158.976 132.074 156.034 129.474C153.093 126.874 149.103 125.414 144.943 125.414C140.783 125.414 136.793 126.874 133.851 129.474C130.91 132.074 129.257 135.599 129.257 139.276C129.257 142.952 130.91 146.478 133.851 149.078C136.793 151.677 140.783 153.138 144.943 153.138Z" fill="#262424"/>
</svg>
