<svg width="200" height="200" viewBox="0 0 200 200" fill="none" xmlns="http://www.w3.org/2000/svg">
<path d="M100.5 50C89.2265 50 78.2061 52.9324 68.8325 58.4265C59.4589 63.9206 52.1531 71.7295 47.8389 80.8658C43.5247 90.0021 42.3959 100.055 44.5952 109.755C46.7946 119.454 52.2233 128.363 60.1949 135.355C68.1665 142.348 78.3229 147.11 89.3799 149.039C100.437 150.969 111.898 149.978 122.313 146.194C132.728 142.41 141.631 136.001 147.894 127.779C154.157 119.556 157.5 109.889 157.5 100C157.494 86.7407 151.487 74.0259 140.799 64.6501C130.11 55.2744 115.616 50.005 100.5 50ZM57.75 100C57.7598 97.7035 58.0103 95.4126 58.4981 93.1562L83.4 115V120C83.4094 122.65 84.6135 125.188 86.7494 127.062C88.8852 128.936 91.7794 129.992 94.8 130V137.125C84.552 135.91 75.1526 131.48 68.3411 124.655C61.5295 117.83 57.7671 109.071 57.75 100ZM123.3 120H117.6V105C117.596 103.675 116.994 102.405 115.926 101.468C114.858 100.531 113.411 100.003 111.9 100H77.7V90H89.1C90.6106 89.9967 92.0582 89.4689 93.1264 88.5319C94.1945 87.5949 94.7962 86.3251 94.8 85V75H106.2C109.092 74.9891 111.871 74.0147 113.974 72.274C116.077 70.5334 117.348 68.1566 117.529 65.625C123.688 67.9607 129.132 71.5385 133.419 76.0676C137.705 80.5967 140.712 85.9491 142.196 91.6897C143.679 97.4304 143.598 103.397 141.957 109.105C140.317 114.813 137.164 120.1 132.755 124.537C131.742 123.144 130.344 121.997 128.691 121.204C127.039 120.411 125.184 119.997 123.3 120ZM107.625 31.25C107.625 32.4861 107.207 33.6945 106.424 34.7223C105.641 35.7501 104.529 36.5512 103.227 37.0242C101.925 37.4973 100.492 37.6211 99.11 37.3799C97.7279 37.1388 96.4583 36.5435 95.4619 35.6694C94.4654 34.7953 93.7868 33.6817 93.5119 32.4693C93.237 31.2569 93.3781 30.0003 93.9174 28.8582C94.4566 27.7162 95.3699 26.7401 96.5416 26.0533C97.7133 25.3666 99.0908 25 100.5 25C102.39 25 104.202 25.6585 105.538 26.8306C106.874 28.0027 107.625 29.5924 107.625 31.25ZM143.25 37.5C143.25 38.7361 142.832 39.9445 142.049 40.9723C141.266 42.0001 140.154 42.8012 138.852 43.2742C137.55 43.7473 136.117 43.8711 134.735 43.6299C133.353 43.3888 132.083 42.7935 131.087 41.9194C130.09 41.0453 129.412 39.9317 129.137 38.7193C128.862 37.5069 129.003 36.2503 129.542 35.1082C130.082 33.9662 130.995 32.9901 132.167 32.3033C133.338 31.6166 134.716 31.25 136.125 31.25C138.015 31.25 139.827 31.9085 141.163 33.0806C142.499 34.2527 143.25 35.8424 143.25 37.5ZM171.75 62.5C171.75 63.7361 171.332 64.9445 170.549 65.9723C169.766 67.0001 168.654 67.8012 167.352 68.2742C166.05 68.7473 164.617 68.8711 163.235 68.6299C161.853 68.3888 160.583 67.7935 159.587 66.9194C158.59 66.0453 157.912 64.9317 157.637 63.7193C157.362 62.5069 157.503 61.2503 158.042 60.1082C158.582 58.9662 159.495 57.9901 160.667 57.3033C161.838 56.6166 163.216 56.25 164.625 56.25C166.515 56.25 168.327 56.9085 169.663 58.0806C170.999 59.2527 171.75 60.8424 171.75 62.5ZM186 100C186 101.236 185.582 102.445 184.799 103.472C184.016 104.5 182.904 105.301 181.602 105.774C180.3 106.247 178.867 106.371 177.485 106.13C176.103 105.889 174.833 105.293 173.837 104.419C172.84 103.545 172.162 102.432 171.887 101.219C171.612 100.007 171.753 98.7503 172.292 97.6082C172.832 96.4662 173.745 95.4901 174.917 94.8033C176.088 94.1166 177.466 93.75 178.875 93.75C180.765 93.75 182.577 94.4085 183.913 95.5806C185.249 96.7527 186 98.3424 186 100ZM171.75 137.5C171.75 138.736 171.332 139.945 170.549 140.972C169.766 142 168.654 142.801 167.352 143.274C166.05 143.747 164.617 143.871 163.235 143.63C161.853 143.389 160.583 142.794 159.587 141.919C158.59 141.045 157.912 139.932 157.637 138.719C157.362 137.507 157.503 136.25 158.042 135.108C158.582 133.966 159.495 132.99 160.667 132.303C161.838 131.617 163.216 131.25 164.625 131.25C166.515 131.25 168.327 131.908 169.663 133.081C170.999 134.253 171.75 135.842 171.75 137.5ZM143.25 162.5C143.25 163.736 142.832 164.945 142.049 165.972C141.266 167 140.154 167.801 138.852 168.274C137.55 168.747 136.117 168.871 134.735 168.63C133.353 168.389 132.083 167.794 131.087 166.919C130.09 166.045 129.412 164.932 129.137 163.719C128.862 162.507 129.003 161.25 129.542 160.108C130.082 158.966 130.995 157.99 132.167 157.303C133.338 156.617 134.716 156.25 136.125 156.25C138.015 156.25 139.827 156.908 141.163 158.081C142.499 159.253 143.25 160.842 143.25 162.5ZM107.625 168.75C107.625 169.986 107.207 171.195 106.424 172.222C105.641 173.25 104.529 174.051 103.227 174.524C101.925 174.997 100.492 175.121 99.11 174.88C97.7279 174.639 96.4583 174.044 95.4619 173.169C94.4654 172.295 93.7868 171.182 93.5119 169.969C93.237 168.757 93.3781 167.5 93.9174 166.358C94.4566 165.216 95.3699 164.24 96.5416 163.553C97.7133 162.867 99.0908 162.5 100.5 162.5C102.39 162.5 104.202 163.158 105.538 164.331C106.874 165.503 107.625 167.092 107.625 168.75ZM72 162.5C72 163.736 71.5821 164.945 70.7992 165.972C70.0163 167 68.9035 167.801 67.6016 168.274C66.2997 168.747 64.8671 168.871 63.485 168.63C62.1029 168.389 60.8333 167.794 59.8369 166.919C58.8404 166.045 58.1618 164.932 57.8869 163.719C57.612 162.507 57.7531 161.25 58.2924 160.108C58.8316 158.966 59.7449 157.99 60.9166 157.303C62.0883 156.617 63.4658 156.25 64.875 156.25C66.7647 156.25 68.5769 156.908 69.9131 158.081C71.2493 159.253 72 160.842 72 162.5ZM43.5 137.5C43.5 138.736 43.0821 139.945 42.2992 140.972C41.5163 142 40.4035 142.801 39.1016 143.274C37.7997 143.747 36.3671 143.871 34.985 143.63C33.6029 143.389 32.3333 142.794 31.3369 141.919C30.3404 141.045 29.6618 139.932 29.3869 138.719C29.112 137.507 29.2531 136.25 29.7924 135.108C30.3316 133.966 31.2449 132.99 32.4166 132.303C33.5883 131.617 34.9658 131.25 36.375 131.25C38.2647 131.25 40.0769 131.908 41.4131 133.081C42.7493 134.253 43.5 135.842 43.5 137.5ZM29.25 100C29.25 101.236 28.8321 102.445 28.0492 103.472C27.2663 104.5 26.1535 105.301 24.8516 105.774C23.5497 106.247 22.1171 106.371 20.735 106.13C19.3529 105.889 18.0833 105.293 17.0869 104.419C16.0904 103.545 15.4118 102.432 15.1369 101.219C14.862 100.007 15.0031 98.7503 15.5424 97.6082C16.0816 96.4662 16.9949 95.4901 18.1666 94.8033C19.3383 94.1166 20.7158 93.75 22.125 93.75C24.0147 93.75 25.8269 94.4085 27.1631 95.5806C28.4993 96.7527 29.25 98.3424 29.25 100ZM43.5 62.5C43.5 63.7361 43.0821 64.9445 42.2992 65.9723C41.5163 67.0001 40.4035 67.8012 39.1016 68.2742C37.7997 68.7473 36.3671 68.8711 34.985 68.6299C33.6029 68.3888 32.3333 67.7935 31.3369 66.9194C30.3404 66.0453 29.6618 64.9317 29.3869 63.7193C29.112 62.5069 29.2531 61.2503 29.7924 60.1082C30.3316 58.9662 31.2449 57.9901 32.4166 57.3033C33.5883 56.6166 34.9658 56.25 36.375 56.25C38.2647 56.25 40.0769 56.9085 41.4131 58.0806C42.7493 59.2527 43.5 60.8424 43.5 62.5ZM72 37.5C72 38.7361 71.5821 39.9445 70.7992 40.9723C70.0163 42.0001 68.9035 42.8012 67.6016 43.2742C66.2997 43.7473 64.8671 43.8711 63.485 43.6299C62.1029 43.3888 60.8333 42.7935 59.8369 41.9194C58.8404 41.0453 58.1618 39.9317 57.8869 38.7193C57.612 37.5069 57.7531 36.2503 58.2924 35.1082C58.8316 33.9662 59.7449 32.9901 60.9166 32.3033C62.0883 31.6166 63.4658 31.25 64.875 31.25C66.7647 31.25 68.5769 31.9085 69.9131 33.0806C71.2493 34.2527 72 35.8424 72 37.5Z" fill="#262424"/>
</svg>
